<svg width="169" height="121" viewBox="0 0 169 121" fill="none" xmlns="http://www.w3.org/2000/svg">
<g filter="url(#filter0_d_202_7)">
<path d="M84.5649 92.2105C101.921 92.2105 115.991 79.7884 115.991 64.4648C115.991 49.1413 101.921 36.7191 84.5649 36.7191C67.2089 36.7191 53.139 49.1413 53.139 64.4648C53.139 79.7884 67.2089 92.2105 84.5649 92.2105Z" fill="#FF1F0A"/>
<path d="M119.245 2.26226C133.608 47.6974 162 52.1931 162 52.1931C162 52.1931 148.365 54.6605 126.374 35.0855C124.164 33.1168 122.367 26.0655 118.222 26.5148C114.775 26.881 113.053 33.2675 113.053 33.2675C103.878 23.2241 91.5384 18.5596 91.5384 18.5596C104.044 6.26712 116.578 -1.54781 119.245 2.26226Z" fill="black" stroke="black" stroke-miterlimit="10"/>
<path d="M121.541 66.9088C121.541 66.9088 102.278 65.7427 84.3701 58.094V58.0784H84.3546H84.3364V58.094C66.569 65.7427 47.5862 66.7789 47.5862 66.7789C47.5862 66.7789 45.6072 87.2759 57.1984 94.0286C63.2135 97.5296 72.0309 98.5867 79.5342 110.651C80.1471 111.635 84.0922 112.001 84.4688 112.032V112.069C84.4688 112.069 88.6944 111.809 89.3437 110.77C96.9067 98.7061 105.792 97.6491 111.856 94.1481C123.549 87.3954 121.541 66.9088 121.541 66.9088ZM61.1227 84.7125C61.1073 85.0696 60.9545 85.4069 60.6964 85.6542C60.4382 85.9014 60.0946 86.0394 59.7371 86.0394C59.3797 86.0394 59.0361 85.9014 58.7779 85.6542C58.5197 85.4069 58.367 85.0696 58.3515 84.7125V71.6928C58.367 71.3357 58.5197 70.9984 58.7779 70.7511C59.0361 70.5039 59.3797 70.3659 59.7371 70.3659C60.0946 70.3659 60.4382 70.5039 60.6964 70.7511C60.9545 70.9984 61.1073 71.3357 61.1227 71.6928V84.7125ZM71.6257 92.1716C71.61 92.5437 71.4511 92.8952 71.1822 93.1529C70.9134 93.4106 70.5554 93.5544 70.183 93.5544C69.8106 93.5544 69.4526 93.4106 69.1838 93.1529C68.915 92.8952 68.7561 92.5437 68.7403 92.1716V69.1995C68.7561 68.8275 68.915 68.4759 69.1838 68.2182C69.4526 67.9606 69.8106 67.8167 70.183 67.8167C70.5554 67.8167 70.9134 67.9606 71.1822 68.2182C71.4511 68.4759 71.61 68.8275 71.6257 69.1995V92.1716ZM80.9756 97.7114C80.9839 97.906 80.9527 98.1003 80.8839 98.2825C80.8151 98.4648 80.7102 98.6312 80.5754 98.7718C80.4406 98.9125 80.2788 99.0244 80.0996 99.1008C79.9204 99.1773 79.7277 99.2167 79.5329 99.2167C79.3381 99.2167 79.1453 99.1773 78.9662 99.1008C78.787 99.0244 78.6252 98.9125 78.4904 98.7718C78.3556 98.6312 78.2506 98.4648 78.1819 98.2825C78.1131 98.1003 78.0819 97.906 78.0901 97.7114V67.2776C78.1059 66.9056 78.2648 66.554 78.5337 66.2963C78.8025 66.0386 79.1605 65.8948 79.5329 65.8948C79.9053 65.8948 80.2632 66.0386 80.5321 66.2963C80.8009 66.554 80.9598 66.9056 80.9756 67.2776V97.7114ZM91.0397 97.8413C91.048 98.0359 91.0168 98.2302 90.948 98.4124C90.8792 98.5946 90.7743 98.7611 90.6395 98.9017C90.5047 99.0423 90.3429 99.1542 90.1637 99.2307C89.9845 99.3071 89.7918 99.3465 89.597 99.3465C89.4022 99.3465 89.2094 99.3071 89.0302 99.2307C88.8511 99.1542 88.6892 99.0423 88.5545 98.9017C88.4197 98.7611 88.3147 98.5946 88.246 98.4124C88.1772 98.2302 88.146 98.0359 88.1542 97.8413V67.4101C88.17 67.038 88.3289 66.6864 88.5978 66.4288C88.8666 66.1711 89.2246 66.0272 89.597 66.0272C89.9693 66.0272 90.3273 66.1711 90.5962 66.4288C90.865 66.6864 91.0239 67.038 91.0397 67.4101V97.8413ZM100.39 92.3015C100.374 92.6735 100.215 93.0251 99.946 93.2828C99.6772 93.5404 99.3192 93.6843 98.9468 93.6843C98.5745 93.6843 98.2165 93.5404 97.9476 93.2828C97.6788 93.0251 97.5199 92.6735 97.5041 92.3015V69.3294C97.5199 68.9573 97.6788 68.6058 97.9476 68.3481C98.2165 68.0904 98.5745 67.9466 98.9468 67.9466C99.3192 67.9466 99.6772 68.0904 99.946 68.3481C100.215 68.6058 100.374 68.9573 100.39 69.3294V92.3015ZM110.778 84.8424C110.763 85.1995 110.61 85.5368 110.352 85.784C110.094 86.0312 109.75 86.1693 109.393 86.1693C109.035 86.1693 108.692 86.0312 108.433 85.784C108.175 85.5368 108.023 85.1995 108.007 84.8424V71.8123C108.023 71.4552 108.175 71.1178 108.433 70.8706C108.692 70.6234 109.035 70.4854 109.393 70.4854C109.75 70.4854 110.094 70.6234 110.352 70.8706C110.61 71.1178 110.763 71.4552 110.778 71.8123V84.8424Z" fill="black" stroke="black" stroke-miterlimit="10"/>
<path d="M49.8847 1.97396C35.5223 47.4091 7.12986 51.9048 7.12986 51.9048C7.12986 51.9048 20.7651 54.3722 42.7554 34.7946C44.9657 32.8285 46.7629 25.7772 50.908 26.2239C54.3545 26.5901 56.0764 32.9766 56.0764 32.9766C65.2523 22.9358 77.5915 18.2713 77.5915 18.2713C65.086 5.98402 52.552 -1.8465 49.8847 1.97396Z" fill="black" stroke="black" stroke-miterlimit="10"/>
<path d="M47.5992 79.5207C46.6397 80.5352 45.5729 81.4426 44.4176 82.227C43.4541 82.8581 40.4985 83.871 40.4985 83.871C40.4985 83.871 44.093 84.5904 45.2332 84.6216C46.2123 84.6476 48.9186 84.4346 48.9186 84.4346C48.5901 83.8067 48.2996 83.1597 48.0485 82.4971C47.8771 81.9231 47.5992 79.5207 47.5992 79.5207Z" fill="black"/>
<path d="M49.7133 86.4318C48.2485 88.2291 47.7161 88.7148 46.8954 89.364C45.9941 90.0783 42.0308 91.821 42.0308 91.821C42.0308 91.821 45.6669 92.6417 48.4485 92.5482C49.412 92.5144 53.274 91.9301 53.274 91.9301C53.274 91.9301 51.5651 89.7822 51.2352 89.2446C50.9522 88.7875 49.7133 86.4318 49.7133 86.4318Z" fill="black"/>
<path d="M121.635 79.3415C122.597 80.3506 123.665 81.2527 124.821 82.0322C125.787 82.6581 128.748 83.658 128.748 83.658C128.748 83.658 125.156 84.3956 124.019 84.4372C123.037 84.4658 120.331 84.2658 120.331 84.2658C120.657 83.6369 120.945 82.989 121.193 82.3257C121.367 81.7465 121.635 79.3415 121.635 79.3415Z" fill="black"/>
<path d="M119.554 86.263C121.027 88.0525 121.562 88.5355 122.385 89.1822C123.292 89.8939 127.263 91.6158 127.263 91.6158C127.263 91.6158 123.627 92.4547 120.848 92.3742C119.884 92.3456 116.019 91.7768 116.019 91.7768C116.019 91.7768 117.718 89.6212 118.045 89.0835C118.328 88.6238 119.554 86.263 119.554 86.263Z" fill="black"/>
<path d="M119.367 52.8736C118.796 43.0822 110.355 33.6233 110.355 33.6233C110.355 33.6233 101.592 22.3463 84.7337 18.9699H84.7104C84.6966 18.9673 84.6825 18.9673 84.6688 18.9699C84.6542 18.9674 84.6393 18.9674 84.6247 18.9699H84.6013H84.5831H84.5649H84.5415C84.5269 18.9674 84.512 18.9674 84.4974 18.9699C84.4837 18.9673 84.4696 18.9673 84.4558 18.9699H84.4325C67.5741 22.3463 58.806 33.6207 58.806 33.6207C58.806 33.6207 50.3652 43.0796 49.7938 52.871C49.7029 54.4449 49.612 61.6599 49.612 61.6599C57.7672 62.9585 83.6066 53.8216 83.6066 53.8216C84.2645 53.7038 84.9381 53.7038 85.596 53.8216C85.596 53.8216 111.435 62.9688 119.591 61.6599C119.554 61.6625 119.463 54.4475 119.367 52.8736ZM69.896 50.1362C68.4546 49.8764 66.4729 48.113 66.0418 46.7131C65.8964 46.2326 65.686 44.5886 65.9093 44.1367C66.1327 43.6847 67.2729 42.9082 67.2729 42.9082C74.1996 48.4272 74.4359 48.4921 74.4359 48.4921C74.4359 48.4921 71.0414 50.3491 69.896 50.1362ZM103.088 46.7131C102.657 48.1207 100.668 49.8764 99.2338 50.1362C98.0885 50.3413 94.7043 48.4843 94.7043 48.4843C94.7043 48.4843 94.9303 48.4194 101.857 42.9082C101.857 42.9082 103.015 43.7211 103.22 44.1367C103.426 44.5522 103.233 46.2404 103.088 46.7209V46.7131Z" fill="black" stroke="black" stroke-miterlimit="10"/>
<path opacity="0.1" d="M47.5369 79.5207C46.5773 80.5352 45.5106 81.4426 44.3553 82.227C43.3918 82.8581 40.4362 83.871 40.4362 83.871C40.4362 83.871 44.0307 84.5904 45.1708 84.6216C46.15 84.6476 48.8562 84.4346 48.8562 84.4346C48.5278 83.8067 48.2372 83.1597 47.9862 82.4971C47.8148 81.9231 47.5369 79.5207 47.5369 79.5207Z" fill="white"/>
<path opacity="0.1" d="M49.651 86.4318C48.1862 88.2291 47.6537 88.7148 46.833 89.364C45.9318 90.0783 41.9685 91.821 41.9685 91.821C41.9685 91.821 45.6045 92.6417 48.3861 92.5482C49.3497 92.5144 53.2117 91.9301 53.2117 91.9301C53.2117 91.9301 51.5028 89.7822 51.1729 89.2446C50.8898 88.7875 49.651 86.4318 49.651 86.4318Z" fill="white"/>
<path opacity="0.2" d="M121.572 79.3415C122.537 80.351 123.608 81.2531 124.767 82.0322C125.733 82.6581 128.694 83.658 128.694 83.658C128.694 83.658 125.102 84.3956 123.964 84.4372C122.982 84.4658 120.276 84.2658 120.276 84.2658C120.602 83.6369 120.89 82.989 121.138 82.3257C121.305 81.7465 121.572 79.3415 121.572 79.3415Z" fill="white"/>
<path opacity="0.2" d="M119.492 86.263C120.964 88.0525 121.499 88.5355 122.323 89.1822C123.229 89.8939 127.2 91.6158 127.2 91.6158C127.2 91.6158 123.564 92.4547 120.785 92.3742C119.822 92.3456 115.957 91.7768 115.957 91.7768C115.957 91.7768 117.658 89.6212 117.983 89.0835C118.263 88.6238 119.492 86.263 119.492 86.263Z" fill="white"/>
<path opacity="0.1" d="M47.5576 66.7789C47.5576 66.7789 45.5656 87.2759 57.1672 94.0286C63.1823 97.5296 71.9997 98.5866 79.503 110.651C80.0744 111.567 83.5261 111.949 84.3078 112.022V58.0939C66.5405 65.7426 47.5576 66.7789 47.5576 66.7789ZM61.0916 84.7125C61.0761 85.0696 60.9234 85.4069 60.6652 85.6542C60.407 85.9014 60.0634 86.0394 59.706 86.0394C59.3485 86.0394 59.0049 85.9014 58.7467 85.6542C58.4886 85.4069 58.3358 85.0696 58.3204 84.7125V71.6928C58.3358 71.3357 58.4886 70.9983 58.7467 70.7511C59.0049 70.5039 59.3485 70.3659 59.706 70.3659C60.0634 70.3659 60.407 70.5039 60.6652 70.7511C60.9234 70.9983 61.0761 71.3357 61.0916 71.6928V84.7125ZM71.5972 92.1716C71.5972 92.5546 71.445 92.9219 71.1742 93.1927C70.9034 93.4635 70.5361 93.6156 70.1531 93.6156C69.7702 93.6156 69.4029 93.4635 69.1321 93.1927C68.8612 92.9219 68.7091 92.5546 68.7091 92.1716V69.1995C68.7091 68.8165 68.8612 68.4492 69.1321 68.1784C69.4029 67.9076 69.7702 67.7555 70.1531 67.7555C70.5361 67.7555 70.9034 67.9076 71.1742 68.1784C71.445 68.4492 71.5972 68.8165 71.5972 69.1995V92.1716ZM79.503 99.1554C79.1202 99.1547 78.7533 99.0024 78.4827 98.7317C78.212 98.4611 78.0597 98.0942 78.059 97.7114V67.2776C78.059 66.8946 78.2111 66.5273 78.4819 66.2565C78.7527 65.9857 79.12 65.8335 79.503 65.8335C79.886 65.8335 80.2533 65.9857 80.5241 66.2565C80.7949 66.5273 80.947 66.8946 80.947 67.2776V97.7114C80.9464 98.0942 80.794 98.4611 80.5233 98.7317C80.2527 99.0024 79.8858 99.1547 79.503 99.1554Z" fill="white" stroke="white" stroke-miterlimit="10"/>
<path opacity="0.2" d="M121.512 66.9088C121.512 66.9088 102.247 65.7427 84.3416 58.094V58.0784H84.3234H84.3078V112.012H84.4377V112.048C84.4377 112.048 88.6659 111.788 89.3152 110.749C96.8756 98.6854 105.763 97.6283 111.825 94.1273C123.523 87.3954 121.512 66.9088 121.512 66.9088ZM91.0111 97.8413C91.0111 98.2242 90.859 98.5915 90.5882 98.8624C90.3174 99.1332 89.9501 99.2853 89.5671 99.2853C89.1841 99.2853 88.8168 99.1332 88.546 98.8624C88.2752 98.5915 88.1231 98.2242 88.1231 97.8413V67.4101C88.1231 67.0271 88.2752 66.6598 88.546 66.389C88.8168 66.1182 89.1841 65.966 89.5671 65.966C89.9501 65.966 90.3174 66.1182 90.5882 66.389C90.859 66.6598 91.0111 67.0271 91.0111 67.4101V97.8413ZM100.361 92.3015C100.361 92.6845 100.209 93.0518 99.9381 93.3226C99.6673 93.5934 99.3 93.7455 98.917 93.7455C98.534 93.7455 98.1667 93.5934 97.8959 93.3226C97.6251 93.0518 97.4729 92.6845 97.4729 92.3015V69.3294C97.4729 68.9464 97.6251 68.5791 97.8959 68.3083C98.1667 68.0375 98.534 67.8853 98.917 67.8853C99.3 67.8853 99.6673 68.0375 99.9381 68.3083C100.209 68.5791 100.361 68.9464 100.361 69.3294V92.3015ZM110.75 84.8424C110.734 85.1995 110.582 85.5368 110.323 85.784C110.065 86.0312 109.722 86.1693 109.364 86.1693C109.007 86.1693 108.663 86.0312 108.405 85.784C108.147 85.5368 107.994 85.1995 107.979 84.8424V71.8123C107.994 71.4552 108.147 71.1178 108.405 70.8706C108.663 70.6234 109.007 70.4854 109.364 70.4854C109.722 70.4854 110.065 70.6234 110.323 70.8706C110.582 71.1178 110.734 71.4552 110.75 71.8123V84.8424Z" fill="white" stroke="white" stroke-miterlimit="10"/>
<path opacity="0.1" d="M58.819 33.5142C58.819 33.5142 58.7515 33.5895 58.6372 33.7246L84.5156 53.5489L84.448 18.8661C67.5871 22.2502 58.819 33.5142 58.819 33.5142Z" fill="white"/>
<path opacity="0.2" d="M110.311 33.5142C110.311 33.5142 101.543 22.2398 84.6818 18.8661H84.6584H84.4714H84.4481L84.5156 53.5489V53.6605H84.6143V53.5489L110.493 33.7246C110.378 33.5999 110.311 33.5142 110.311 33.5142Z" fill="white"/>
<path opacity="0.1" d="M49.7263 53.6709C49.6458 56.0681 49.5756 61.6936 49.5756 61.6936C57.7308 62.9922 83.6351 53.9228 83.6351 53.9228C83.8733 53.8732 84.1168 53.854 84.3597 53.8657H84.448V53.6709H49.7263Z" fill="white"/>
<path opacity="0.2" d="M119.554 53.6371H119.414C119.492 56.0343 119.565 61.6624 119.565 61.6624H119.549C119.549 61.2391 119.476 55.9694 119.398 53.6709H84.4481V53.8657H84.7649L85.3467 53.9021L102.766 59.6782L120.339 63.4675L119.554 53.6371Z" fill="white"/>
<path opacity="0.2" d="M119.107 2.39211C133.47 47.8273 161.862 52.323 161.862 52.323C161.862 52.323 148.227 54.7903 126.237 35.2153C124.027 33.2467 122.229 26.1953 118.084 26.6446C114.638 27.0108 112.916 33.3973 112.916 33.3973C103.74 23.354 91.4007 18.6894 91.4007 18.6894C103.909 6.39696 116.448 -1.42835 119.107 2.39211Z" fill="white" stroke="white" stroke-miterlimit="10"/>
<path opacity="0.1" d="M49.7627 2.10381C35.3924 47.539 7 52.0347 7 52.0347C7 52.0347 20.6352 54.502 42.6256 34.9244C44.8358 32.9584 46.633 25.907 50.7782 26.3537C54.2246 26.7199 55.9465 33.1064 55.9465 33.1064C65.1224 23.0657 77.4616 18.4011 77.4616 18.4011C64.9614 6.10866 52.4222 -1.71665 49.7627 2.10381Z" fill="white" stroke="white" stroke-miterlimit="10"/>
</g>
<defs>
<filter id="filter0_d_202_7" x="0" y="0" width="169" height="121" filterUnits="userSpaceOnUse" color-interpolation-filters="sRGB">
<feFlood flood-opacity="0" result="BackgroundImageFix"/>
<feColorMatrix in="SourceAlpha" type="matrix" values="0 0 0 0 0 0 0 0 0 0 0 0 0 0 0 0 0 0 127 0" result="hardAlpha"/>
<feOffset dy="4"/>
<feGaussianBlur stdDeviation="2"/>
<feComposite in2="hardAlpha" operator="out"/>
<feColorMatrix type="matrix" values="0 0 0 0 0 0 0 0 0 0 0 0 0 0 0 0 0 0 0.25 0"/>
<feBlend mode="normal" in2="BackgroundImageFix" result="effect1_dropShadow_202_7"/>
<feBlend mode="normal" in="SourceGraphic" in2="effect1_dropShadow_202_7" result="shape"/>
</filter>
</defs>
</svg>
